<svg width="580" height="400" xmlns="http://www.w3.org/2000/svg">
 <!-- Created with Method Draw - http://github.com/duopixel/Method-Draw/ -->

 <g>
  <title>background</title>
  <rect fill="#fff" id="canvas_background" height="402" width="582" y="-1" x="-1"/>
  <g display="none" overflow="visible" y="0" x="0" height="100%" width="100%" id="canvasGrid">
   <rect fill="url(#gridpattern)" stroke-width="0" y="0" x="0" height="100%" width="100%"/>
  </g>
 </g>
 <g>
  <title>Layer 1</title>
  <g id="svg_6">
   <path id="svg_5" fill="#6061a6" d="m289.999998,76.543221c17.045716,0 30.864195,13.818479 30.864195,30.864195s-13.818479,30.864195 -30.864195,30.864195s-30.864195,-13.818479 -30.864195,-30.864195s13.818479,-30.864195 30.864195,-30.864195m23.148146,69.444439l-5.478395,0c-10.952449,5.036169 -23.914929,5.253665 -35.339503,0l-5.478395,0c-12.784528,0 -23.148146,10.363618 -23.148146,23.148146l0,65.586415c0,6.392264 5.181809,11.574073 11.574073,11.574073l7.716049,0l0,65.586415c0,6.392264 5.181809,11.574073 11.574073,11.574073l30.864195,0c6.392264,0 11.574073,-5.181809 11.574073,-11.574073l0,-65.586415l7.716049,0c6.392264,0 11.574073,-5.181809 11.574073,-11.574073l0,-65.586415c0,-12.784528 -10.363618,-23.148146 -23.148146,-23.148146z"/>
  </g>
 </g>
</svg>